# xmcd
# 
# Track frame offsets:
#     150
#     10790
#     24965
#     37557
#     56492
#     67612
#     77457
#     90690
#     103670
#     113100
#     126085
#     140527
#     164022
# 
# Disc length: 2344
# 
# Revision: 10
# Processed by: cddbd v1.5.2PL0 Copyright (c) Steve Scherf et al.
# Submitted via: fre:ac v1.0.17
# 
DISCID=9209260d
DTITLE=Various Artist - Pinups
DYEAR=1999
DGENRE=Pop 
TTITLE0=David Bowie - Rosalyn
TTITLE1=David Bowie - Here Comes The Night
TTITLE2=David Bowie - I Wish You Would
TTITLE3=David Bowie - See Emily Play
TTITLE4=David Bowie - Everything's Alright
TTITLE5=David Bowie - I Can't Explain
TTITLE6=David Bowie - Friday On My Mind
TTITLE7=David Bowie - Sorrow
TTITLE8=David Bowie - Don't Bring Me Down
TTITLE9=David Bowie - Shapes Of Things
TTITLE10=David Bowie - Anyway, Anyhow, Anywhere
TTITLE11=David Bowie - Where Have All The Good Times Gone
TTITLE12=David Bowie - (Bonus Track)
EXTD=YEAR: 1973 ID3G:  17
EXTT0=
EXTT1=
EXTT2=
EXTT3=
EXTT4=
EXTT5=
EXTT6=
EXTT7=
EXTT8=
EXTT9=
EXTT10=
EXTT11=
EXTT12=
PLAYORDER=
